# xmcd
#
# Track frame offsets:
#	150
#	20070
#	36992
#	53755
#	71985
#	94147
#	111957
#	132642
#	156897
#	183555
#	203552
#
# Disc length: 2743 seconds
#
# Revision: 1
# Processed by: cddbd v1.5.1PL0 Copyright (c) Steve Scherf et al.
# Submitted via: CDex 1.50Beta5
#
DISCID=a40ab50b
DTITLE=村松邦男 - ROMAN
DYEAR=1994
DGENRE=
TTITLE0=愛してルミナス
TTITLE1=CANDY HEART
TTITLE2=LOVER’S PARTY
TTITLE3=YOU’RE SO FINE
TTITLE4=雨糸
TTITLE5=DREAM OF DREAM
TTITLE6=RAINY DAY
TTITLE7=冬の陽だまり
TTITLE8=一角獣
TTITLE9=GET TOGETHER
TTITLE10=NEVER NEVER LAND
EXTD=
EXTT0=
EXTT1=
EXTT2=
EXTT3=
EXTT4=
EXTT5=
EXTT6=
EXTT7=
EXTT8=
EXTT9=
EXTT10=
PLAYORDER=
